<svg xmlns="http://www.w3.org/2000/svg" width="212" height="21" viewBox="0 0 212 21">
    <g fill="#243C47" fill-rule="evenodd">
        <path d="M46.314.444V21h-2.007V4.56L36.53 18.39h-.98l-7.777-13.74V21h-2.007V.45h1.723l8.597 15.238L44.597.45z"/>
        <path fill-rule="nonzero" d="M70.775 7.483c0 4.378-3.086 7.02-8.172 7.02h-5.37V21H55.12V.444h7.485c5.084-.007 8.17 2.636 8.17 7.04zm-2.115 0c0-3.286-2.113-5.166-6.114-5.166h-5.313v10.278h5.313c4.001 0 6.118-1.88 6.118-5.112h-.004zM88.934 15.504H77.692L75.268 21h-2.21L82.285.444h2.104L93.606 21h-2.25l-2.422-5.496zm-.769-1.76l-4.84-11.042-4.856 11.043h9.696z"/>
        <path d="M101.717 2.322H94.91V.444h15.655v1.878h-6.804V21h-2.045zM132.745.444V21h-2.198v-9.488h-13.188V21h-2.227V.45h2.227V9.61h13.188V.444zM148.005 13.888V21h-2.146v-7.112L137.637.444h2.32l7.05 11.545L154.053.45h2.175z"/>
        <path fill-rule="nonzero" d="M18.294 5.376a9.326 9.326 0 0 0-3.49-3.63 9.747 9.747 0 0 0-5-1.301 9.734 9.734 0 0 0-5.02 1.321 9.384 9.384 0 0 0-3.51 3.67A10.972 10.972 0 0 0 0 10.729a10.415 10.415 0 0 0 1.353 5.308 9.652 9.652 0 0 0 3.742 3.642 11.122 11.122 0 0 0 5.446 1.32c1.5.01 2.986-.282 4.368-.857a8.807 8.807 0 0 0 3.355-2.449l.048-.06-1.246-1.382-.067.082a7.1 7.1 0 0 1-2.782 2.06 9.329 9.329 0 0 1-3.637.705 9.187 9.187 0 0 1-4.29-.991 7.622 7.622 0 0 1-3.016-2.796 8.236 8.236 0 0 1-1.188-4.04h17.435l.046-.62a10.853 10.853 0 0 0-1.274-5.275zM2.13 9.61a8.457 8.457 0 0 1 1.164-3.732 7.21 7.21 0 0 1 2.707-2.624 7.792 7.792 0 0 1 3.803-.93 7.468 7.468 0 0 1 6.53 3.576 7.904 7.904 0 0 1 1.146 3.71H2.13z"/>
        <path d="M158.284 20.569a1.433 1.433 0 0 1-.425-1.052c-.01-.388.144-.763.425-1.036.269-.272.64-.423 1.027-.417.39-.006.768.144 1.043.417.29.269.449.645.44 1.036.008.395-.151.776-.44 1.052-.272.279-.65.435-1.043.43a1.388 1.388 0 0 1-1.027-.43zM174.273 19.674a9.899 9.899 0 0 1-3.909-3.683 10.517 10.517 0 0 1 0-10.543 9.875 9.875 0 0 1 3.922-3.673 11.79 11.79 0 0 1 5.61-1.33 11.94 11.94 0 0 1 4.296.751 8.943 8.943 0 0 1 3.346 2.195l-1.403 1.359c-1.636-1.599-3.694-2.398-6.175-2.398a9.303 9.303 0 0 0-4.504 1.097 8.138 8.138 0 0 0-3.177 3.005 8.528 8.528 0 0 0 0 8.55 8.162 8.162 0 0 0 3.177 3.005 9.304 9.304 0 0 0 4.5 1.084c2.506 0 4.564-.808 6.175-2.426l1.403 1.357a9.037 9.037 0 0 1-3.346 2.21 11.879 11.879 0 0 1-4.31.764 11.697 11.697 0 0 1-5.605-1.324z"/>
        <path fill-rule="nonzero" d="M196.47 19.646a9.646 9.646 0 0 1-3.69-3.672 11.073 11.073 0 0 1 0-10.515 9.646 9.646 0 0 1 3.69-3.672 11.004 11.004 0 0 1 10.514-.013 9.686 9.686 0 0 1 3.676 3.672 11.036 11.036 0 0 1 0 10.543 9.68 9.68 0 0 1-3.676 3.682 11.019 11.019 0 0 1-10.514-.012v-.013zm9.465-1.648a7.732 7.732 0 0 0 2.927-3.005 9.194 9.194 0 0 0 0-8.58 7.732 7.732 0 0 0-2.927-3.004 8.693 8.693 0 0 0-8.4 0 7.79 7.79 0 0 0-2.965 3.005 9.084 9.084 0 0 0 0 8.579 7.79 7.79 0 0 0 2.964 3.005 8.693 8.693 0 0 0 8.4 0z"/>
    </g>
</svg>
